<svg width="204pt" height="118pt" viewBox="0.00 0.00 203.67 118.38" xmlns="http://www.w3.org/2000/svg" xmlns:xlink="http://www.w3.org/1999/xlink">
<g id="graph0" class="graph" transform="scale(1 1) rotate(0) translate(4 114.38)">
<title>G</title>
<polygon fill="white" stroke="none" points="-4,4 -4,-114.38 199.67,-114.38 199.67,4 -4,4"></polygon>
<!-- n0out1 -->
<!-- n0out2 -->
<!-- n0out1&#45;&gt;n0out2 -->
<!-- n0out3 -->
<!-- n0out2&#45;&gt;n0out3 -->
<!-- n1 -->
<!-- Red -->
<g id="n1" class="node">
<title>n1</title>
<polygon fill="none" stroke="black" points="110.12,-86.12 110.12,-110.38 141.88,-110.38 141.88,-86.12 110.12,-86.12"></polygon>
<text text-anchor="start" x="115.12" y="-92.08" font-family="Serif" font-size="14.00">Red</text>
</g>
<!-- n1&#45;&gt;n0out1 -->
<!-- State -->
<g id="e4" class="edge">
<title>n1:e-&gt;n0out1:w</title>
<path fill="none" stroke="black" d="M143,-98.25C160.07,-98.25 165.83,-98.25 180.25,-98.25"></path>
<polygon fill="black" stroke="black" points="179.99,-100 184.99,-98.25 179.99,-96.5 179.99,-100"></polygon>
<text text-anchor="middle" x="178.63" y="-84.95" font-family="Serif" font-size="14.00">State</text>
</g>
<!-- n2 -->
<!-- Green -->
<g id="n2" class="node">
<title>n2</title>
<polygon fill="none" stroke="black" points="104.5,-44.12 104.5,-68.38 147.5,-68.38 147.5,-44.12 104.5,-44.12"></polygon>
<text text-anchor="start" x="109.5" y="-50.08" font-family="Serif" font-size="14.00">Green</text>
</g>
<!-- n2&#45;&gt;n0out2 -->
<!-- State -->
<g id="e5" class="edge">
<title>n2:e-&gt;n0out2:w</title>
<path fill="none" stroke="black" d="M149,-56.25C163.32,-56.25 168.41,-56.25 180.14,-56.25"></path>
<polygon fill="black" stroke="black" points="179.99,-58 184.99,-56.25 179.99,-54.5 179.99,-58"></polygon>
<text text-anchor="middle" x="181.15" y="-42.95" font-family="Serif" font-size="14.00">State</text>
</g>
<!-- n3 -->
<!-- Yellow -->
<g id="n3" class="node">
<title>n3</title>
<polygon fill="none" stroke="black" points="101.5,-2.12 101.5,-26.38 150.5,-26.38 150.5,-2.12 101.5,-2.12"></polygon>
<text text-anchor="start" x="106.5" y="-8.07" font-family="Serif" font-size="14.00">Yellow</text>
</g>
<!-- n3&#45;&gt;n0out3 -->
<!-- State -->
<g id="e6" class="edge">
<title>n3:e-&gt;n0out3:w</title>
<path fill="none" stroke="black" d="M150.5,-14.25C164.12,-14.25 169.05,-14.25 180.09,-14.25"></path>
<polygon fill="black" stroke="black" points="179.99,-16 184.99,-14.25 179.99,-12.5 179.99,-16"></polygon>
<text text-anchor="middle" x="182.17" y="-0.95" font-family="Serif" font-size="14.00">State</text>
</g>
<!-- n4 -->
<!-- Controller -->
<g id="n4" class="node">
<title>n4</title>
<polygon fill="none" stroke="black" points="0,-20.25 0,-92.25 65.5,-92.25 65.5,-20.25 0,-20.25"></polygon>
<text text-anchor="start" x="5" y="-50.08" font-family="Serif" font-size="14.00">Controller</text>
</g>
<!-- n4&#45;&gt;n1 -->
<!-- Red -->
<g id="e1" class="edge">
<title>n4:e-&gt;n1:w</title>
<path fill="none" stroke="black" d="M65.5,-80.25C84.13,-80.25 87.48,-94.53 102.78,-97.65"></path>
<polygon fill="black" stroke="black" points="102.35,-99.37 107.49,-98.11 102.68,-95.88 102.35,-99.37"></polygon>
<text text-anchor="middle" x="76.41" y="-75.98" font-family="Serif" font-size="14.00">Red</text>
</g>
<!-- n4&#45;&gt;n2 -->
<!-- Green -->
<g id="e2" class="edge">
<title>n4:e-&gt;n2:w</title>
<path fill="none" stroke="black" d="M65.5,-56.25C79.82,-56.25 84.91,-56.25 96.64,-56.25"></path>
<polygon fill="black" stroke="black" points="96.49,-58 101.49,-56.25 96.49,-54.5 96.49,-58"></polygon>
<text text-anchor="middle" x="100.65" y="-42.95" font-family="Serif" font-size="14.00">Green</text>
</g>
<!-- n4&#45;&gt;n3 -->
<!-- Yellow -->
<g id="e3" class="edge">
<title>n4:e-&gt;n3:w</title>
<path fill="none" stroke="black" d="M65.5,-32.25C81.01,-32.25 83.24,-18.71 95.22,-15.12"></path>
<polygon fill="black" stroke="black" points="95.29,-16.88 100,-14.46 94.81,-13.41 95.29,-16.88"></polygon>
<text text-anchor="middle" x="64.04" y="-9.91" font-family="Serif" font-size="14.00">Yellow</text>
</g>
</g>
</svg>